<svg xmlns="http://www.w3.org/2000/svg" xmlns:xlink="http://www.w3.org/1999/xlink" width="250" zoomAndPan="magnify" viewBox="0 0 187.5 112.499997" height="150" preserveAspectRatio="xMidYMid meet" version="1.0"><defs><g/><clipPath id="f8fe1919ea"><path d="M 90 49 L 164 49 L 164 84 L 90 84 Z M 90 49 " clip-rule="nonzero"/></clipPath><clipPath id="4ea66ecc47"><path d="M 82.90625 20.667969 L 165.84375 5.179688 L 179.417969 77.84375 L 96.476562 93.335938 Z M 82.90625 20.667969 " clip-rule="nonzero"/></clipPath><clipPath id="a331245c67"><path d="M 166.074219 5.136719 L 83.132812 20.625 L 96.707031 93.292969 L 179.644531 77.800781 Z M 166.074219 5.136719 " clip-rule="nonzero"/></clipPath><clipPath id="fb7273cd4f"><path d="M 158.347656 38.757812 L 88.691406 51.765625 L 96.460938 93.363281 L 166.117188 80.351562 Z M 158.347656 38.757812 " clip-rule="nonzero"/></clipPath><clipPath id="5de92f5f79"><path d="M 158.347656 38.757812 L 88.722656 51.761719 L 96.480469 93.304688 L 166.109375 80.300781 Z M 158.347656 38.757812 " clip-rule="nonzero"/></clipPath><clipPath id="6d1b14220e"><path d="M 121 24 L 170 24 L 170 63 L 121 63 Z M 121 24 " clip-rule="nonzero"/></clipPath><clipPath id="32d37a3814"><path d="M 82.90625 20.667969 L 165.84375 5.179688 L 179.417969 77.84375 L 96.476562 93.335938 Z M 82.90625 20.667969 " clip-rule="nonzero"/></clipPath><clipPath id="d6f2c483ed"><path d="M 166.074219 5.136719 L 83.132812 20.625 L 96.707031 93.292969 L 179.644531 77.800781 Z M 166.074219 5.136719 " clip-rule="nonzero"/></clipPath><clipPath id="52ebcee676"><path d="M 109 11 L 137 11 L 137 50 L 109 50 Z M 109 11 " clip-rule="nonzero"/></clipPath><clipPath id="7f114bf6ff"><path d="M 82.90625 20.667969 L 165.84375 5.179688 L 179.417969 77.84375 L 96.476562 93.335938 Z M 82.90625 20.667969 " clip-rule="nonzero"/></clipPath><clipPath id="e0eec4d014"><path d="M 166.074219 5.136719 L 83.132812 20.625 L 96.707031 93.292969 L 179.644531 77.800781 Z M 166.074219 5.136719 " clip-rule="nonzero"/></clipPath></defs><g clip-path="url(#f8fe1919ea)"><g clip-path="url(#4ea66ecc47)"><g clip-path="url(#a331245c67)"><g clip-path="url(#fb7273cd4f)"><g clip-path="url(#5de92f5f79)"><path fill="#004aad" d="M 107.769531 51.199219 C 110.605469 52.683594 113.066406 54.753906 115.59375 56.582031 C 127.992188 65.707031 143.796875 70.214844 159.160156 68.058594 C 153.078125 69.433594 146.710938 69.597656 140.480469 68.765625 C 131.105469 67.5 122.085938 63.777344 114.300781 58.40625 C 108.398438 54.277344 101.808594 48.152344 95.691406 55.550781 C 95.042969 56.289062 94.445312 57.097656 93.882812 57.933594 C 97 59.476562 99.828125 61.445312 102.101562 64.171875 C 103.265625 65.644531 104.253906 67.363281 105.375 68.851562 C 111.324219 77.484375 119.628906 78.292969 129.261719 76.179688 L 129.730469 76.082031 C 129.730469 76.082031 130.105469 76.34375 130.105469 76.347656 C 135.804688 80.136719 142.960938 83.21875 149.90625 81.976562 C 157.242188 80.6875 161.523438 73.617188 163.609375 67.011719 C 159.882812 82.980469 148.269531 87.445312 133.816406 80.757812 C 132.269531 80.035156 130.792969 79.253906 129.324219 78.320312 C 122 80.175781 113.171875 80.195312 107.253906 74.769531 C 104.277344 72.230469 102.367188 68.890625 100.085938 65.816406 C 97.511719 62.753906 93.765625 60.578125 90.085938 59.066406 L 90.882812 57.792969 C 94.835938 51.300781 100.238281 47.039062 107.769531 51.199219 " fill-opacity="1" fill-rule="nonzero"/></g></g></g></g></g><g clip-path="url(#6d1b14220e)"><g clip-path="url(#32d37a3814)"><g clip-path="url(#d6f2c483ed)"><path fill="#004aad" d="M 130.691406 61.558594 C 148.84375 62.929688 159.222656 51.3125 164.179688 35.847656 C 161.453125 38.25 158.277344 40.136719 154.785156 41.230469 C 152.164062 42.046875 149.355469 42.300781 146.652344 42.089844 C 141.523438 41.757812 136.371094 40.851562 131.273438 41.089844 C 125.230469 41.300781 122.414062 44.195312 122.617188 50.28125 C 122.683594 52.851562 123.148438 55.417969 123.726562 57.925781 C 122.175781 53.210938 120.203125 46.871094 123.636719 42.53125 C 127.386719 38.4375 134.042969 39.152344 139.046875 39.273438 C 144.066406 39.445312 149.1875 40.492188 154.027344 38.816406 C 158.121094 37.515625 161.761719 34.886719 164.640625 31.710938 C 165.578125 30.746094 168.882812 26.105469 169.773438 24.933594 C 168.164062 31.214844 166.582031 38.1875 163.570312 43.972656 C 157.28125 56.867188 145.109375 64.433594 130.691406 61.558594 " fill-opacity="1" fill-rule="nonzero"/></g></g></g><g clip-path="url(#52ebcee676)"><g clip-path="url(#7f114bf6ff)"><g clip-path="url(#e0eec4d014)"><path fill="#004aad" d="M 121.058594 29.765625 C 112.148438 32.871094 109.71875 40.367188 109.753906 49.207031 C 109.113281 45.964844 108.957031 42.476562 109.664062 39.210938 C 110.804688 33.660156 114.933594 29.398438 120.167969 27.414062 C 120.890625 27.085938 121.949219 26.691406 122.636719 26.316406 C 126.992188 24.15625 130.605469 20.5 132.5625 16.039062 C 132.972656 15.167969 133.898438 12.097656 134.226562 11.132812 L 135.269531 14.816406 C 137.265625 21.742188 137.308594 29.585938 133.769531 36.015625 C 135.5625 30.386719 135.425781 24.402344 133.988281 18.734375 C 131.390625 23.976562 126.546875 27.871094 121.058594 29.765625 " fill-opacity="1" fill-rule="nonzero"/></g></g></g><g fill="#ffffff" fill-opacity="1"><g transform="translate(18.452598, 89.881864)"><g><path d="M 0.578125 0 L 0.578125 -4.734375 L 2.015625 -4.734375 L 2.015625 -17.703125 L 0.578125 -17.703125 L 0.578125 -22.421875 L 11.53125 -22.421875 L 11.53125 -17.703125 L 10.09375 -17.703125 L 10.09375 -4.734375 L 11.53125 -4.734375 L 11.53125 0 Z M 0.578125 0 "/></g></g></g><g fill="#ffffff" fill-opacity="1"><g transform="translate(30.560308, 89.881864)"><g><path d="M 0.578125 -4.734375 L 2.015625 -4.734375 L 2.015625 -17.703125 L 0.578125 -17.703125 L 0.578125 -22.421875 L 13.8125 -22.421875 C 16.207031 -22.421875 18.078125 -21.929688 19.421875 -20.953125 C 20.773438 -19.972656 21.453125 -18.570312 21.453125 -16.75 C 21.453125 -15.613281 21.179688 -14.65625 20.640625 -13.875 C 20.097656 -13.101562 19.46875 -12.519531 18.75 -12.125 C 18.03125 -11.726562 17.332031 -11.460938 16.65625 -11.328125 L 16.65625 -11.046875 C 18.019531 -10.910156 19.25 -10.476562 20.34375 -9.75 C 21.445312 -9.019531 22 -7.710938 22 -5.828125 C 22 -3.804688 21.238281 -2.328125 19.71875 -1.390625 C 18.195312 -0.460938 16.226562 0 13.8125 0 L 0.578125 0 Z M 11.640625 -12.96875 C 12.203125 -12.96875 12.617188 -13.113281 12.890625 -13.40625 C 13.171875 -13.707031 13.3125 -14.175781 13.3125 -14.8125 L 13.3125 -15.859375 C 13.3125 -16.492188 13.171875 -16.957031 12.890625 -17.25 C 12.617188 -17.550781 12.203125 -17.703125 11.640625 -17.703125 L 10.09375 -17.703125 L 10.09375 -12.96875 Z M 11.84375 -4.734375 C 12.40625 -4.734375 12.820312 -4.878906 13.09375 -5.171875 C 13.375 -5.472656 13.515625 -5.941406 13.515625 -6.578125 L 13.515625 -7.84375 C 13.515625 -8.476562 13.375 -8.941406 13.09375 -9.234375 C 12.820312 -9.535156 12.40625 -9.6875 11.84375 -9.6875 L 10.09375 -9.6875 L 10.09375 -4.734375 Z M 11.84375 -4.734375 "/></g></g></g><g fill="#ffffff" fill-opacity="1"><g transform="translate(52.901915, 89.881864)"><g><path d="M 21.734375 -4.734375 L 22.890625 -4.734375 L 22.890625 0 L 11.59375 0 L 11.59375 -4.734375 L 13.3125 -4.734375 L 12.859375 -7.03125 L 8.9375 -7.03125 L 8.46875 -4.734375 L 10.203125 -4.734375 L 10.203125 0 L 0.34375 0 L 0.34375 -4.734375 L 1.5 -4.734375 L 6.375 -22.421875 L 16.859375 -22.421875 Z M 9.578125 -10.09375 L 12.21875 -10.09375 L 11.046875 -15.828125 L 10.75 -15.828125 Z M 9.578125 -10.09375 "/></g></g></g><g fill="#ffffff" fill-opacity="1"><g transform="translate(76.137187, 89.881864)"><g><path d="M 17.1875 -22.421875 L 26.640625 -22.421875 L 26.640625 -17.703125 L 25.203125 -17.703125 L 25.203125 0 L 17.09375 0 L 8.65625 -13 L 8.65625 -4.734375 L 10.03125 -4.734375 L 10.03125 0 L 0.578125 0 L 0.578125 -4.734375 L 2.015625 -4.734375 L 2.015625 -17.703125 L 0.578125 -17.703125 L 0.578125 -22.421875 L 10.984375 -22.421875 L 18.5625 -10.875 L 18.5625 -17.703125 L 17.1875 -17.703125 Z M 17.1875 -22.421875 "/></g></g></g><g fill="#ffffff" fill-opacity="1"><g transform="translate(103.293048, 89.881864)"><g><path d="M 7.875 0.40625 C 6.394531 0.40625 4.988281 0.238281 3.65625 -0.09375 C 2.332031 -0.4375 1.226562 -0.90625 0.34375 -1.5 L 0.34375 -6.578125 L 6.109375 -6.578125 L 6.109375 -6.28125 C 6.109375 -5.25 6.609375 -4.734375 7.609375 -4.734375 C 8.128906 -4.734375 8.519531 -4.867188 8.78125 -5.140625 C 9.039062 -5.421875 9.171875 -5.859375 9.171875 -6.453125 L 9.171875 -17.703125 L 6.578125 -17.703125 L 6.578125 -22.421875 L 18.6875 -22.421875 L 18.6875 -17.703125 L 17.234375 -17.703125 L 17.234375 -8.015625 C 17.234375 -5.191406 16.40625 -3.082031 14.75 -1.6875 C 13.101562 -0.289062 10.8125 0.40625 7.875 0.40625 Z M 7.875 0.40625 "/></g></g></g><g fill="#ffffff" fill-opacity="1"><g transform="translate(122.492418, 89.881864)"><g><path d="M 0.578125 0 L 0.578125 -4.734375 L 2.015625 -4.734375 L 2.015625 -17.703125 L 0.578125 -17.703125 L 0.578125 -22.421875 L 20.03125 -22.421875 L 20.03125 -13.71875 L 13.578125 -13.71875 L 13.578125 -17.703125 L 10.09375 -17.703125 L 10.09375 -13.140625 L 12.625 -13.140625 L 12.625 -9.859375 L 10.09375 -9.859375 L 10.09375 -4.734375 L 13.578125 -4.734375 L 13.578125 -9.28125 L 20.03125 -9.28125 L 20.03125 0 Z M 0.578125 0 "/></g></g></g><g fill="#ffffff" fill-opacity="1"><g transform="translate(143.047577, 89.881864)"><g/></g></g><g fill="#ffffff" fill-opacity="1"><g transform="translate(18.980635, 99.242075)"><g><path d="M 0.125 0 L 0.125 -1.015625 L 0.4375 -1.015625 L 0.4375 -3.828125 L 0.125 -3.828125 L 0.125 -4.84375 L 2.5 -4.84375 L 2.5 -3.828125 L 2.1875 -3.828125 L 2.1875 -1.015625 L 2.5 -1.015625 L 2.5 0 Z M 0.125 0 "/></g></g></g><g fill="#ffffff" fill-opacity="1"><g transform="translate(21.601041, 99.242075)"><g><path d="M 1.9375 1.46875 C 1.632812 1.46875 1.347656 1.445312 1.078125 1.40625 C 0.804688 1.363281 0.597656 1.316406 0.453125 1.265625 L 0.453125 0.25 C 0.890625 0.320312 1.285156 0.359375 1.640625 0.359375 C 1.867188 0.359375 2.035156 0.320312 2.140625 0.25 C 2.253906 0.175781 2.3125 0.0390625 2.3125 -0.15625 L 2.3125 -0.421875 C 2.207031 -0.285156 2.070312 -0.164062 1.90625 -0.0625 C 1.738281 0.0390625 1.550781 0.09375 1.34375 0.09375 C 0.914062 0.09375 0.59375 -0.0625 0.375 -0.375 C 0.164062 -0.695312 0.0625 -1.148438 0.0625 -1.734375 C 0.0625 -2.316406 0.164062 -2.765625 0.375 -3.078125 C 0.59375 -3.390625 0.914062 -3.546875 1.34375 -3.546875 C 1.550781 -3.546875 1.738281 -3.492188 1.90625 -3.390625 C 2.070312 -3.285156 2.207031 -3.171875 2.3125 -3.046875 L 2.3125 -3.46875 L 4.015625 -3.46875 L 4.015625 -2.4375 L 3.734375 -2.4375 L 3.734375 -0.25 C 3.734375 0.351562 3.582031 0.789062 3.28125 1.0625 C 2.988281 1.332031 2.539062 1.46875 1.9375 1.46875 Z M 1.9375 -1.015625 C 2.0625 -1.015625 2.15625 -1.046875 2.21875 -1.109375 C 2.28125 -1.179688 2.3125 -1.285156 2.3125 -1.421875 L 2.3125 -2.046875 C 2.3125 -2.179688 2.28125 -2.28125 2.21875 -2.34375 C 2.15625 -2.40625 2.0625 -2.4375 1.9375 -2.4375 C 1.820312 -2.4375 1.734375 -2.40625 1.671875 -2.34375 C 1.609375 -2.28125 1.578125 -2.179688 1.578125 -2.046875 L 1.578125 -1.421875 C 1.578125 -1.285156 1.609375 -1.179688 1.671875 -1.109375 C 1.734375 -1.046875 1.820312 -1.015625 1.9375 -1.015625 Z M 1.9375 -1.015625 "/></g></g></g><g fill="#ffffff" fill-opacity="1"><g transform="translate(25.681388, 99.242075)"><g><path d="M 2.78125 -3.546875 C 2.863281 -3.546875 2.941406 -3.535156 3.015625 -3.515625 C 3.085938 -3.503906 3.148438 -3.488281 3.203125 -3.46875 L 3.203125 -2.28125 C 3.023438 -2.34375 2.84375 -2.375 2.65625 -2.375 C 2.382812 -2.375 2.175781 -2.304688 2.03125 -2.171875 C 1.894531 -2.035156 1.828125 -1.832031 1.828125 -1.5625 L 1.828125 -1.015625 L 2.390625 -1.015625 L 2.390625 0 L 0.125 0 L 0.125 -1.015625 L 0.40625 -1.015625 L 0.40625 -2.4375 L 0.125 -2.4375 L 0.125 -3.46875 L 1.828125 -3.46875 L 1.828125 -3.015625 C 1.941406 -3.179688 2.070312 -3.3125 2.21875 -3.40625 C 2.375 -3.5 2.5625 -3.546875 2.78125 -3.546875 Z M 2.78125 -3.546875 "/></g></g></g><g fill="#ffffff" fill-opacity="1"><g transform="translate(28.969373, 99.242075)"><g><path d="M 1.96875 0.09375 C 1.375 0.09375 0.910156 -0.0625 0.578125 -0.375 C 0.253906 -0.6875 0.09375 -1.140625 0.09375 -1.734375 C 0.09375 -2.328125 0.253906 -2.773438 0.578125 -3.078125 C 0.910156 -3.390625 1.375 -3.546875 1.96875 -3.546875 C 2.550781 -3.546875 2.972656 -3.394531 3.234375 -3.09375 C 3.492188 -2.789062 3.625 -2.410156 3.625 -1.953125 L 3.625 -1.515625 L 1.609375 -1.515625 L 1.609375 -1.46875 C 1.609375 -1.3125 1.648438 -1.195312 1.734375 -1.125 C 1.828125 -1.050781 1.984375 -1.015625 2.203125 -1.015625 C 2.453125 -1.015625 2.691406 -1.035156 2.921875 -1.078125 C 3.148438 -1.117188 3.347656 -1.164062 3.515625 -1.21875 L 3.515625 -0.21875 C 3.367188 -0.144531 3.15625 -0.0703125 2.875 0 C 2.601562 0.0625 2.300781 0.09375 1.96875 0.09375 Z M 2.328125 -2.1875 L 2.328125 -2.265625 C 2.328125 -2.410156 2.296875 -2.515625 2.234375 -2.578125 C 2.179688 -2.640625 2.09375 -2.671875 1.96875 -2.671875 C 1.851562 -2.671875 1.765625 -2.632812 1.703125 -2.5625 C 1.640625 -2.5 1.609375 -2.398438 1.609375 -2.265625 L 1.609375 -2.1875 Z M 2.328125 -2.1875 "/></g></g></g><g fill="#ffffff" fill-opacity="1"><g transform="translate(32.675375, 99.242075)"><g><path d="M 0.375 -3.8125 L 0.375 -4.84375 L 1.65625 -4.84375 L 1.65625 -3.8125 Z M 0.34375 1.46875 C 0.164062 1.46875 -0.0078125 1.453125 -0.1875 1.421875 C -0.375 1.398438 -0.523438 1.367188 -0.640625 1.328125 L -0.640625 0.3125 C -0.453125 0.34375 -0.28125 0.359375 -0.125 0.359375 C 0.195312 0.359375 0.359375 0.207031 0.359375 -0.09375 L 0.359375 -2.4375 L -0.0625 -2.4375 L -0.0625 -3.46875 L 1.796875 -3.46875 L 1.796875 -0.21875 C 1.796875 0.351562 1.671875 0.773438 1.421875 1.046875 C 1.179688 1.328125 0.820312 1.46875 0.34375 1.46875 Z M 0.34375 1.46875 "/></g></g></g><g fill="#ffffff" fill-opacity="1"><g transform="translate(34.628202, 99.242075)"><g><path d="M 3.75 -1.015625 L 3.75 0 L 2.09375 0 L 2.09375 -0.421875 C 2.007812 -0.285156 1.882812 -0.164062 1.71875 -0.0625 C 1.550781 0.0390625 1.347656 0.09375 1.109375 0.09375 C 0.796875 0.09375 0.550781 0.0078125 0.375 -0.15625 C 0.195312 -0.320312 0.109375 -0.554688 0.109375 -0.859375 C 0.109375 -1.648438 0.773438 -2.054688 2.109375 -2.078125 C 2.097656 -2.210938 2.046875 -2.304688 1.953125 -2.359375 C 1.859375 -2.410156 1.695312 -2.4375 1.46875 -2.4375 C 1.28125 -2.4375 1.078125 -2.414062 0.859375 -2.375 C 0.648438 -2.34375 0.457031 -2.289062 0.28125 -2.21875 L 0.28125 -3.375 C 0.5 -3.425781 0.734375 -3.46875 0.984375 -3.5 C 1.242188 -3.53125 1.5 -3.546875 1.75 -3.546875 C 2.363281 -3.546875 2.800781 -3.429688 3.0625 -3.203125 C 3.332031 -2.984375 3.46875 -2.640625 3.46875 -2.171875 L 3.46875 -1.015625 Z M 2.09375 -1.453125 C 1.914062 -1.453125 1.773438 -1.425781 1.671875 -1.375 C 1.566406 -1.332031 1.515625 -1.253906 1.515625 -1.140625 C 1.515625 -1.066406 1.535156 -1.003906 1.578125 -0.953125 C 1.617188 -0.910156 1.679688 -0.890625 1.765625 -0.890625 C 1.867188 -0.890625 1.945312 -0.9375 2 -1.03125 C 2.0625 -1.125 2.09375 -1.253906 2.09375 -1.421875 Z M 2.09375 -1.453125 "/></g></g></g><g fill="#ffffff" fill-opacity="1"><g transform="translate(38.465225, 99.242075)"><g/></g></g><g fill="#ffffff" fill-opacity="1"><g transform="translate(40.336943, 99.242075)"><g><path d="M 0.125 -1.015625 L 0.4375 -1.015625 L 0.4375 -3.828125 L 0.125 -3.828125 L 0.125 -4.84375 L 2.984375 -4.84375 C 3.503906 -4.84375 3.910156 -4.738281 4.203125 -4.53125 C 4.492188 -4.320312 4.640625 -4.019531 4.640625 -3.625 C 4.640625 -3.375 4.582031 -3.164062 4.46875 -3 C 4.351562 -2.832031 4.21875 -2.707031 4.0625 -2.625 C 3.90625 -2.539062 3.753906 -2.484375 3.609375 -2.453125 L 3.609375 -2.390625 C 3.898438 -2.359375 4.160156 -2.265625 4.390625 -2.109375 C 4.628906 -1.953125 4.75 -1.671875 4.75 -1.265625 C 4.75 -0.828125 4.582031 -0.503906 4.25 -0.296875 C 3.925781 -0.0976562 3.503906 0 2.984375 0 L 0.125 0 Z M 2.515625 -2.8125 C 2.640625 -2.8125 2.726562 -2.84375 2.78125 -2.90625 C 2.84375 -2.96875 2.875 -3.066406 2.875 -3.203125 L 2.875 -3.421875 C 2.875 -3.566406 2.84375 -3.671875 2.78125 -3.734375 C 2.726562 -3.796875 2.640625 -3.828125 2.515625 -3.828125 L 2.1875 -3.828125 L 2.1875 -2.8125 Z M 2.5625 -1.015625 C 2.6875 -1.015625 2.773438 -1.046875 2.828125 -1.109375 C 2.890625 -1.179688 2.921875 -1.285156 2.921875 -1.421875 L 2.921875 -1.703125 C 2.921875 -1.835938 2.890625 -1.9375 2.828125 -2 C 2.773438 -2.0625 2.6875 -2.09375 2.5625 -2.09375 L 2.1875 -2.09375 L 2.1875 -1.015625 Z M 2.5625 -1.015625 "/></g></g></g><g fill="#ffffff" fill-opacity="1"><g transform="translate(45.172216, 99.242075)"><g><path d="M 3.75 -1.015625 L 3.75 0 L 2.09375 0 L 2.09375 -0.421875 C 2.007812 -0.285156 1.882812 -0.164062 1.71875 -0.0625 C 1.550781 0.0390625 1.347656 0.09375 1.109375 0.09375 C 0.796875 0.09375 0.550781 0.0078125 0.375 -0.15625 C 0.195312 -0.320312 0.109375 -0.554688 0.109375 -0.859375 C 0.109375 -1.648438 0.773438 -2.054688 2.109375 -2.078125 C 2.097656 -2.210938 2.046875 -2.304688 1.953125 -2.359375 C 1.859375 -2.410156 1.695312 -2.4375 1.46875 -2.4375 C 1.28125 -2.4375 1.078125 -2.414062 0.859375 -2.375 C 0.648438 -2.34375 0.457031 -2.289062 0.28125 -2.21875 L 0.28125 -3.375 C 0.5 -3.425781 0.734375 -3.46875 0.984375 -3.5 C 1.242188 -3.53125 1.5 -3.546875 1.75 -3.546875 C 2.363281 -3.546875 2.800781 -3.429688 3.0625 -3.203125 C 3.332031 -2.984375 3.46875 -2.640625 3.46875 -2.171875 L 3.46875 -1.015625 Z M 2.09375 -1.453125 C 1.914062 -1.453125 1.773438 -1.425781 1.671875 -1.375 C 1.566406 -1.332031 1.515625 -1.253906 1.515625 -1.140625 C 1.515625 -1.066406 1.535156 -1.003906 1.578125 -0.953125 C 1.617188 -0.910156 1.679688 -0.890625 1.765625 -0.890625 C 1.867188 -0.890625 1.945312 -0.9375 2 -1.03125 C 2.0625 -1.125 2.09375 -1.253906 2.09375 -1.421875 Z M 2.09375 -1.453125 "/></g></g></g><g fill="#ffffff" fill-opacity="1"><g transform="translate(49.009239, 99.242075)"><g><path d="M 1.65625 0.09375 C 1.207031 0.09375 0.875 -0.015625 0.65625 -0.234375 C 0.4375 -0.453125 0.328125 -0.8125 0.328125 -1.3125 L 0.328125 -2.4375 L 0.046875 -2.4375 L 0.046875 -3.46875 C 0.203125 -3.46875 0.320312 -3.503906 0.40625 -3.578125 C 0.488281 -3.660156 0.53125 -3.773438 0.53125 -3.921875 L 0.53125 -4.203125 L 1.84375 -4.203125 L 1.84375 -3.46875 L 2.6875 -3.46875 L 2.6875 -2.4375 L 1.84375 -2.4375 L 1.84375 -1.421875 C 1.84375 -1.285156 1.875 -1.179688 1.9375 -1.109375 C 2 -1.046875 2.085938 -1.015625 2.203125 -1.015625 C 2.359375 -1.015625 2.53125 -1.035156 2.71875 -1.078125 L 2.71875 -0.09375 C 2.601562 -0.0507812 2.445312 -0.0078125 2.25 0.03125 C 2.050781 0.0703125 1.851562 0.09375 1.65625 0.09375 Z M 1.65625 0.09375 "/></g></g></g><g fill="#ffffff" fill-opacity="1"><g transform="translate(51.823057, 99.242075)"><g><path d="M 0.40625 -3.8125 L 0.40625 -4.84375 L 1.6875 -4.84375 L 1.6875 -3.8125 Z M 0.109375 0 L 0.109375 -1.015625 L 0.390625 -1.015625 L 0.390625 -2.4375 L 0.109375 -2.4375 L 0.109375 -3.46875 L 1.828125 -3.46875 L 1.828125 -1.015625 L 2.09375 -1.015625 L 2.09375 0 Z M 0.109375 0 "/></g></g></g><g fill="#ffffff" fill-opacity="1"><g transform="translate(53.981772, 99.242075)"><g><path d="M 1.625 0.09375 C 1.101562 0.09375 0.597656 0.0078125 0.109375 -0.15625 L 0.109375 -1.078125 L 1.125 -1.078125 L 1.125 -1.015625 C 1.125 -0.816406 1.25 -0.71875 1.5 -0.71875 C 1.726562 -0.71875 1.84375 -0.796875 1.84375 -0.953125 C 1.84375 -1.035156 1.804688 -1.097656 1.734375 -1.140625 C 1.671875 -1.179688 1.5625 -1.21875 1.40625 -1.25 L 1.09375 -1.296875 C 0.4375 -1.421875 0.109375 -1.789062 0.109375 -2.40625 C 0.109375 -2.769531 0.242188 -3.050781 0.515625 -3.25 C 0.796875 -3.445312 1.171875 -3.546875 1.640625 -3.546875 C 2.148438 -3.546875 2.585938 -3.460938 2.953125 -3.296875 L 2.953125 -2.421875 L 2 -2.421875 L 2 -2.484375 C 2 -2.566406 1.96875 -2.628906 1.90625 -2.671875 C 1.851562 -2.722656 1.773438 -2.75 1.671875 -2.75 C 1.460938 -2.75 1.359375 -2.679688 1.359375 -2.546875 C 1.359375 -2.472656 1.382812 -2.414062 1.4375 -2.375 C 1.5 -2.34375 1.609375 -2.3125 1.765625 -2.28125 L 2.125 -2.203125 C 2.488281 -2.128906 2.75 -2 2.90625 -1.8125 C 3.0625 -1.625 3.140625 -1.378906 3.140625 -1.078125 C 3.140625 -0.703125 3.007812 -0.410156 2.75 -0.203125 C 2.488281 -0.00390625 2.113281 0.09375 1.625 0.09375 Z M 1.625 0.09375 "/></g></g></g><g fill="#ffffff" fill-opacity="1"><g transform="translate(57.219846, 99.242075)"><g><path d="M 1.65625 0.09375 C 1.207031 0.09375 0.875 -0.015625 0.65625 -0.234375 C 0.4375 -0.453125 0.328125 -0.8125 0.328125 -1.3125 L 0.328125 -2.4375 L 0.046875 -2.4375 L 0.046875 -3.46875 C 0.203125 -3.46875 0.320312 -3.503906 0.40625 -3.578125 C 0.488281 -3.660156 0.53125 -3.773438 0.53125 -3.921875 L 0.53125 -4.203125 L 1.84375 -4.203125 L 1.84375 -3.46875 L 2.6875 -3.46875 L 2.6875 -2.4375 L 1.84375 -2.4375 L 1.84375 -1.421875 C 1.84375 -1.285156 1.875 -1.179688 1.9375 -1.109375 C 2 -1.046875 2.085938 -1.015625 2.203125 -1.015625 C 2.359375 -1.015625 2.53125 -1.035156 2.71875 -1.078125 L 2.71875 -0.09375 C 2.601562 -0.0507812 2.445312 -0.0078125 2.25 0.03125 C 2.050781 0.0703125 1.851562 0.09375 1.65625 0.09375 Z M 1.65625 0.09375 "/></g></g></g><g fill="#ffffff" fill-opacity="1"><g transform="translate(60.033663, 99.242075)"><g><path d="M 3.75 -1.015625 L 3.75 0 L 2.09375 0 L 2.09375 -0.421875 C 2.007812 -0.285156 1.882812 -0.164062 1.71875 -0.0625 C 1.550781 0.0390625 1.347656 0.09375 1.109375 0.09375 C 0.796875 0.09375 0.550781 0.0078125 0.375 -0.15625 C 0.195312 -0.320312 0.109375 -0.554688 0.109375 -0.859375 C 0.109375 -1.648438 0.773438 -2.054688 2.109375 -2.078125 C 2.097656 -2.210938 2.046875 -2.304688 1.953125 -2.359375 C 1.859375 -2.410156 1.695312 -2.4375 1.46875 -2.4375 C 1.28125 -2.4375 1.078125 -2.414062 0.859375 -2.375 C 0.648438 -2.34375 0.457031 -2.289062 0.28125 -2.21875 L 0.28125 -3.375 C 0.5 -3.425781 0.734375 -3.46875 0.984375 -3.5 C 1.242188 -3.53125 1.5 -3.546875 1.75 -3.546875 C 2.363281 -3.546875 2.800781 -3.429688 3.0625 -3.203125 C 3.332031 -2.984375 3.46875 -2.640625 3.46875 -2.171875 L 3.46875 -1.015625 Z M 2.09375 -1.453125 C 1.914062 -1.453125 1.773438 -1.425781 1.671875 -1.375 C 1.566406 -1.332031 1.515625 -1.253906 1.515625 -1.140625 C 1.515625 -1.066406 1.535156 -1.003906 1.578125 -0.953125 C 1.617188 -0.910156 1.679688 -0.890625 1.765625 -0.890625 C 1.867188 -0.890625 1.945312 -0.9375 2 -1.03125 C 2.0625 -1.125 2.09375 -1.253906 2.09375 -1.421875 Z M 2.09375 -1.453125 "/></g></g></g><g fill="#ffffff" fill-opacity="1"><g transform="translate(63.870686, 99.242075)"><g/></g></g><g fill="#ffffff" fill-opacity="1"><g transform="translate(65.742406, 99.242075)"><g><path d="M 3.71875 -4.84375 L 5.765625 -4.84375 L 5.765625 -3.828125 L 5.453125 -3.828125 L 5.453125 0 L 3.703125 0 L 1.875 -2.8125 L 1.875 -1.015625 L 2.171875 -1.015625 L 2.171875 0 L 0.125 0 L 0.125 -1.015625 L 0.4375 -1.015625 L 0.4375 -3.828125 L 0.125 -3.828125 L 0.125 -4.84375 L 2.375 -4.84375 L 4.015625 -2.34375 L 4.015625 -3.828125 L 3.71875 -3.828125 Z M 3.71875 -4.84375 "/></g></g></g><g fill="#ffffff" fill-opacity="1"><g transform="translate(71.619603, 99.242075)"><g><path d="M 1.96875 0.09375 C 1.375 0.09375 0.910156 -0.0625 0.578125 -0.375 C 0.253906 -0.6875 0.09375 -1.140625 0.09375 -1.734375 C 0.09375 -2.328125 0.253906 -2.773438 0.578125 -3.078125 C 0.910156 -3.390625 1.375 -3.546875 1.96875 -3.546875 C 2.570312 -3.546875 3.035156 -3.390625 3.359375 -3.078125 C 3.691406 -2.765625 3.859375 -2.316406 3.859375 -1.734375 C 3.859375 -1.140625 3.691406 -0.6875 3.359375 -0.375 C 3.023438 -0.0625 2.5625 0.09375 1.96875 0.09375 Z M 1.96875 -1.015625 C 2.09375 -1.015625 2.179688 -1.046875 2.234375 -1.109375 C 2.296875 -1.179688 2.328125 -1.285156 2.328125 -1.421875 L 2.328125 -2.046875 C 2.328125 -2.179688 2.296875 -2.28125 2.234375 -2.34375 C 2.179688 -2.40625 2.09375 -2.4375 1.96875 -2.4375 C 1.851562 -2.4375 1.765625 -2.40625 1.703125 -2.34375 C 1.640625 -2.28125 1.609375 -2.179688 1.609375 -2.046875 L 1.609375 -1.421875 C 1.609375 -1.285156 1.640625 -1.179688 1.703125 -1.109375 C 1.765625 -1.046875 1.851562 -1.015625 1.96875 -1.015625 Z M 1.96875 -1.015625 "/></g></g></g><g fill="#ffffff" fill-opacity="1"><g transform="translate(75.562692, 99.242075)"><g><path d="M 1.109375 0 L 0.328125 -2.4375 L 0.0625 -2.4375 L 0.0625 -3.46875 L 1.984375 -3.46875 L 1.984375 -2.4375 L 1.734375 -2.4375 L 2.0625 -1.203125 L 2.125 -1.203125 L 2.453125 -2.4375 L 2.1875 -2.4375 L 2.1875 -3.46875 L 4 -3.46875 L 4 -2.4375 L 3.734375 -2.4375 L 2.96875 0 Z M 1.109375 0 "/></g></g></g><g fill="#ffffff" fill-opacity="1"><g transform="translate(79.624322, 99.242075)"><g><path d="M 3.75 -1.015625 L 3.75 0 L 2.09375 0 L 2.09375 -0.421875 C 2.007812 -0.285156 1.882812 -0.164062 1.71875 -0.0625 C 1.550781 0.0390625 1.347656 0.09375 1.109375 0.09375 C 0.796875 0.09375 0.550781 0.0078125 0.375 -0.15625 C 0.195312 -0.320312 0.109375 -0.554688 0.109375 -0.859375 C 0.109375 -1.648438 0.773438 -2.054688 2.109375 -2.078125 C 2.097656 -2.210938 2.046875 -2.304688 1.953125 -2.359375 C 1.859375 -2.410156 1.695312 -2.4375 1.46875 -2.4375 C 1.28125 -2.4375 1.078125 -2.414062 0.859375 -2.375 C 0.648438 -2.34375 0.457031 -2.289062 0.28125 -2.21875 L 0.28125 -3.375 C 0.5 -3.425781 0.734375 -3.46875 0.984375 -3.5 C 1.242188 -3.53125 1.5 -3.546875 1.75 -3.546875 C 2.363281 -3.546875 2.800781 -3.429688 3.0625 -3.203125 C 3.332031 -2.984375 3.46875 -2.640625 3.46875 -2.171875 L 3.46875 -1.015625 Z M 2.09375 -1.453125 C 1.914062 -1.453125 1.773438 -1.425781 1.671875 -1.375 C 1.566406 -1.332031 1.515625 -1.253906 1.515625 -1.140625 C 1.515625 -1.066406 1.535156 -1.003906 1.578125 -0.953125 C 1.617188 -0.910156 1.679688 -0.890625 1.765625 -0.890625 C 1.867188 -0.890625 1.945312 -0.9375 2 -1.03125 C 2.0625 -1.125 2.09375 -1.253906 2.09375 -1.421875 Z M 2.09375 -1.453125 "/></g></g></g><g fill="#ffffff" fill-opacity="1"><g transform="translate(83.461344, 99.242075)"><g/></g></g><g fill="#ffffff" fill-opacity="1"><g transform="translate(85.333064, 99.242075)"><g><path d="M 1.703125 0.09375 C 1.378906 0.09375 1.070312 0.0546875 0.78125 -0.015625 C 0.5 -0.0859375 0.265625 -0.191406 0.078125 -0.328125 L 0.078125 -1.421875 L 1.328125 -1.421875 L 1.328125 -1.359375 C 1.328125 -1.128906 1.429688 -1.015625 1.640625 -1.015625 C 1.753906 -1.015625 1.835938 -1.046875 1.890625 -1.109375 C 1.953125 -1.171875 1.984375 -1.265625 1.984375 -1.390625 L 1.984375 -3.828125 L 1.421875 -3.828125 L 1.421875 -4.84375 L 4.046875 -4.84375 L 4.046875 -3.828125 L 3.734375 -3.828125 L 3.734375 -1.734375 C 3.734375 -1.117188 3.550781 -0.660156 3.1875 -0.359375 C 2.832031 -0.0546875 2.335938 0.09375 1.703125 0.09375 Z M 1.703125 0.09375 "/></g></g></g><g fill="#ffffff" fill-opacity="1"><g transform="translate(89.488281, 99.242075)"><g><path d="M 1.96875 0.09375 C 1.375 0.09375 0.910156 -0.0625 0.578125 -0.375 C 0.253906 -0.6875 0.09375 -1.140625 0.09375 -1.734375 C 0.09375 -2.328125 0.253906 -2.773438 0.578125 -3.078125 C 0.910156 -3.390625 1.375 -3.546875 1.96875 -3.546875 C 2.550781 -3.546875 2.972656 -3.394531 3.234375 -3.09375 C 3.492188 -2.789062 3.625 -2.410156 3.625 -1.953125 L 3.625 -1.515625 L 1.609375 -1.515625 L 1.609375 -1.46875 C 1.609375 -1.3125 1.648438 -1.195312 1.734375 -1.125 C 1.828125 -1.050781 1.984375 -1.015625 2.203125 -1.015625 C 2.453125 -1.015625 2.691406 -1.035156 2.921875 -1.078125 C 3.148438 -1.117188 3.347656 -1.164062 3.515625 -1.21875 L 3.515625 -0.21875 C 3.367188 -0.144531 3.15625 -0.0703125 2.875 0 C 2.601562 0.0625 2.300781 0.09375 1.96875 0.09375 Z M 2.328125 -2.1875 L 2.328125 -2.265625 C 2.328125 -2.410156 2.296875 -2.515625 2.234375 -2.578125 C 2.179688 -2.640625 2.09375 -2.671875 1.96875 -2.671875 C 1.851562 -2.671875 1.765625 -2.632812 1.703125 -2.5625 C 1.640625 -2.5 1.609375 -2.398438 1.609375 -2.265625 L 1.609375 -2.1875 Z M 2.328125 -2.1875 "/></g></g></g><g fill="#ffffff" fill-opacity="1"><g transform="translate(93.194283, 99.242075)"><g><path d="M 2.78125 -3.546875 C 2.863281 -3.546875 2.941406 -3.535156 3.015625 -3.515625 C 3.085938 -3.503906 3.148438 -3.488281 3.203125 -3.46875 L 3.203125 -2.28125 C 3.023438 -2.34375 2.84375 -2.375 2.65625 -2.375 C 2.382812 -2.375 2.175781 -2.304688 2.03125 -2.171875 C 1.894531 -2.035156 1.828125 -1.832031 1.828125 -1.5625 L 1.828125 -1.015625 L 2.390625 -1.015625 L 2.390625 0 L 0.125 0 L 0.125 -1.015625 L 0.40625 -1.015625 L 0.40625 -2.4375 L 0.125 -2.4375 L 0.125 -3.46875 L 1.828125 -3.46875 L 1.828125 -3.015625 C 1.941406 -3.179688 2.070312 -3.3125 2.21875 -3.40625 C 2.375 -3.5 2.5625 -3.546875 2.78125 -3.546875 Z M 2.78125 -3.546875 "/></g></g></g><g fill="#ffffff" fill-opacity="1"><g transform="translate(96.482269, 99.242075)"><g><path d="M 4.21875 -1.015625 L 4.21875 0 L 2.5 0 L 2.5 -0.484375 C 2.207031 -0.0976562 1.835938 0.09375 1.390625 0.09375 C 1.035156 0.09375 0.769531 -0.015625 0.59375 -0.234375 C 0.425781 -0.453125 0.34375 -0.75 0.34375 -1.125 L 0.34375 -2.4375 L 0.078125 -2.4375 L 0.078125 -3.46875 L 1.78125 -3.46875 L 1.78125 -1.421875 C 1.78125 -1.285156 1.8125 -1.179688 1.875 -1.109375 C 1.9375 -1.046875 2.023438 -1.015625 2.140625 -1.015625 C 2.265625 -1.015625 2.351562 -1.046875 2.40625 -1.109375 C 2.46875 -1.179688 2.5 -1.285156 2.5 -1.421875 L 2.5 -2.4375 L 2.171875 -2.4375 L 2.171875 -3.46875 L 3.9375 -3.46875 L 3.9375 -1.015625 Z M 4.21875 -1.015625 "/></g></g></g><g fill="#ffffff" fill-opacity="1"><g transform="translate(100.762262, 99.242075)"><g><path d="M 1.625 0.09375 C 1.101562 0.09375 0.597656 0.0078125 0.109375 -0.15625 L 0.109375 -1.078125 L 1.125 -1.078125 L 1.125 -1.015625 C 1.125 -0.816406 1.25 -0.71875 1.5 -0.71875 C 1.726562 -0.71875 1.84375 -0.796875 1.84375 -0.953125 C 1.84375 -1.035156 1.804688 -1.097656 1.734375 -1.140625 C 1.671875 -1.179688 1.5625 -1.21875 1.40625 -1.25 L 1.09375 -1.296875 C 0.4375 -1.421875 0.109375 -1.789062 0.109375 -2.40625 C 0.109375 -2.769531 0.242188 -3.050781 0.515625 -3.25 C 0.796875 -3.445312 1.171875 -3.546875 1.640625 -3.546875 C 2.148438 -3.546875 2.585938 -3.460938 2.953125 -3.296875 L 2.953125 -2.421875 L 2 -2.421875 L 2 -2.484375 C 2 -2.566406 1.96875 -2.628906 1.90625 -2.671875 C 1.851562 -2.722656 1.773438 -2.75 1.671875 -2.75 C 1.460938 -2.75 1.359375 -2.679688 1.359375 -2.546875 C 1.359375 -2.472656 1.382812 -2.414062 1.4375 -2.375 C 1.5 -2.34375 1.609375 -2.3125 1.765625 -2.28125 L 2.125 -2.203125 C 2.488281 -2.128906 2.75 -2 2.90625 -1.8125 C 3.0625 -1.625 3.140625 -1.378906 3.140625 -1.078125 C 3.140625 -0.703125 3.007812 -0.410156 2.75 -0.203125 C 2.488281 -0.00390625 2.113281 0.09375 1.625 0.09375 Z M 1.625 0.09375 "/></g></g></g><g fill="#ffffff" fill-opacity="1"><g transform="translate(104.000332, 99.242075)"><g><path d="M 3.75 -1.015625 L 3.75 0 L 2.09375 0 L 2.09375 -0.421875 C 2.007812 -0.285156 1.882812 -0.164062 1.71875 -0.0625 C 1.550781 0.0390625 1.347656 0.09375 1.109375 0.09375 C 0.796875 0.09375 0.550781 0.0078125 0.375 -0.15625 C 0.195312 -0.320312 0.109375 -0.554688 0.109375 -0.859375 C 0.109375 -1.648438 0.773438 -2.054688 2.109375 -2.078125 C 2.097656 -2.210938 2.046875 -2.304688 1.953125 -2.359375 C 1.859375 -2.410156 1.695312 -2.4375 1.46875 -2.4375 C 1.28125 -2.4375 1.078125 -2.414062 0.859375 -2.375 C 0.648438 -2.34375 0.457031 -2.289062 0.28125 -2.21875 L 0.28125 -3.375 C 0.5 -3.425781 0.734375 -3.46875 0.984375 -3.5 C 1.242188 -3.53125 1.5 -3.546875 1.75 -3.546875 C 2.363281 -3.546875 2.800781 -3.429688 3.0625 -3.203125 C 3.332031 -2.984375 3.46875 -2.640625 3.46875 -2.171875 L 3.46875 -1.015625 Z M 2.09375 -1.453125 C 1.914062 -1.453125 1.773438 -1.425781 1.671875 -1.375 C 1.566406 -1.332031 1.515625 -1.253906 1.515625 -1.140625 C 1.515625 -1.066406 1.535156 -1.003906 1.578125 -0.953125 C 1.617188 -0.910156 1.679688 -0.890625 1.765625 -0.890625 C 1.867188 -0.890625 1.945312 -0.9375 2 -1.03125 C 2.0625 -1.125 2.09375 -1.253906 2.09375 -1.421875 Z M 2.09375 -1.453125 "/></g></g></g><g fill="#ffffff" fill-opacity="1"><g transform="translate(107.837358, 99.242075)"><g><path d="M 0.109375 0 L 0.109375 -1.015625 L 0.390625 -1.015625 L 0.390625 -3.828125 L 0.109375 -3.828125 L 0.109375 -4.84375 L 1.828125 -4.84375 L 1.828125 -1.015625 L 2.09375 -1.015625 L 2.09375 0 Z M 0.109375 0 "/></g></g></g><g fill="#ffffff" fill-opacity="1"><g transform="translate(110.021033, 99.242075)"><g><path d="M 1.96875 0.09375 C 1.375 0.09375 0.910156 -0.0625 0.578125 -0.375 C 0.253906 -0.6875 0.09375 -1.140625 0.09375 -1.734375 C 0.09375 -2.328125 0.253906 -2.773438 0.578125 -3.078125 C 0.910156 -3.390625 1.375 -3.546875 1.96875 -3.546875 C 2.550781 -3.546875 2.972656 -3.394531 3.234375 -3.09375 C 3.492188 -2.789062 3.625 -2.410156 3.625 -1.953125 L 3.625 -1.515625 L 1.609375 -1.515625 L 1.609375 -1.46875 C 1.609375 -1.3125 1.648438 -1.195312 1.734375 -1.125 C 1.828125 -1.050781 1.984375 -1.015625 2.203125 -1.015625 C 2.453125 -1.015625 2.691406 -1.035156 2.921875 -1.078125 C 3.148438 -1.117188 3.347656 -1.164062 3.515625 -1.21875 L 3.515625 -0.21875 C 3.367188 -0.144531 3.15625 -0.0703125 2.875 0 C 2.601562 0.0625 2.300781 0.09375 1.96875 0.09375 Z M 2.328125 -2.1875 L 2.328125 -2.265625 C 2.328125 -2.410156 2.296875 -2.515625 2.234375 -2.578125 C 2.179688 -2.640625 2.09375 -2.671875 1.96875 -2.671875 C 1.851562 -2.671875 1.765625 -2.632812 1.703125 -2.5625 C 1.640625 -2.5 1.609375 -2.398438 1.609375 -2.265625 L 1.609375 -2.1875 Z M 1.421875 -3.84375 L 1.421875 -3.9375 L 2.109375 -4.875 L 3.4375 -4.875 L 3.4375 -4.71875 L 2.421875 -3.84375 Z M 1.421875 -3.84375 "/></g></g></g><g fill="#ffffff" fill-opacity="1"><g transform="translate(113.727035, 99.242075)"><g><path d="M 6.40625 -1.015625 L 6.40625 0 L 4.4375 0 L 4.4375 -1.015625 L 4.703125 -1.015625 L 4.703125 -2.046875 C 4.703125 -2.179688 4.671875 -2.28125 4.609375 -2.34375 C 4.554688 -2.40625 4.472656 -2.4375 4.359375 -2.4375 C 4.109375 -2.4375 3.984375 -2.304688 3.984375 -2.046875 L 3.984375 -1.015625 L 4.234375 -1.015625 L 4.234375 0 L 2.28125 0 L 2.28125 -1.015625 L 2.546875 -1.015625 L 2.546875 -2.046875 C 2.546875 -2.179688 2.515625 -2.28125 2.453125 -2.34375 C 2.398438 -2.40625 2.3125 -2.4375 2.1875 -2.4375 C 1.945312 -2.4375 1.828125 -2.304688 1.828125 -2.046875 L 1.828125 -1.015625 L 2.078125 -1.015625 L 2.078125 0 L 0.109375 0 L 0.109375 -1.015625 L 0.390625 -1.015625 L 0.390625 -2.4375 L 0.109375 -2.4375 L 0.109375 -3.46875 L 1.828125 -3.46875 L 1.828125 -2.984375 C 2.117188 -3.359375 2.488281 -3.546875 2.9375 -3.546875 C 3.195312 -3.546875 3.40625 -3.488281 3.5625 -3.375 C 3.71875 -3.257812 3.832031 -3.09375 3.90625 -2.875 C 4.050781 -3.09375 4.21875 -3.257812 4.40625 -3.375 C 4.601562 -3.488281 4.832031 -3.546875 5.09375 -3.546875 C 5.445312 -3.546875 5.707031 -3.4375 5.875 -3.21875 C 6.050781 -3.007812 6.140625 -2.710938 6.140625 -2.328125 L 6.140625 -1.015625 Z M 6.40625 -1.015625 "/></g></g></g><g fill="#ffffff" fill-opacity="1"><g transform="translate(120.22814, 99.242075)"><g/></g></g></svg>